{"title":"David (2013) DVDRip XviD 1/3 5.1 AC3 ESub","uid":8350336,"size":1566037928,"categoryP":"video","categoryS":"movies","magnet":"?xt=urn:btih:b2223d006ccf285a19a4dfda62858786259db66e&amp;dn=David+%282013%29+DVDRip+XviD+1%2F3+5.1+AC3+ESub&amp;tr=udp%3A%2F%2Ftracker.openbittorrent.com%3A80&amp;tr=udp%3A%2F%2Fopen.demonii.com%3A1337&amp;tr=udp%3A%2F%2Ftracker.coppersurfer.tk%3A6969&amp;tr=udp%3A%2F%2Fexodus.desync.com%3A6969","seeders":0,"leechers":0,"uploader":"Bclassics","files":12,"time":1365322027,"description":"\n\n-: Cover :- \n\n\n &lt;a href=&quot;\nhttp://desibbrg.org/images/07987390972923411559.jpg&quot; rel=&quot;nofollow&quot; target=&quot;_NEW&quot;&gt;\nhttp://desibbrg.org/images/07987390972923411559.jpg&lt;/a&gt;\n\n-: Screens :-\n\n\n    &lt;a href=&quot;\thttp://desibbrg.org/images/51091881596299996489.png&quot; rel=&quot;nofollow&quot; target=&quot;_NEW&quot;&gt;\thttp://desibbrg.org/images/51091881596299996489.png&lt;/a&gt;\n    &lt;a href=&quot;\thttp://desibbrg.org/images/36205367472688871570.png&quot; rel=&quot;nofollow&quot; target=&quot;_NEW&quot;&gt;\thttp://desibbrg.org/images/36205367472688871570.png&lt;/a&gt;\n    &lt;a href=&quot;\thttp://desibbrg.org/images/17928384764877676357.png&quot; rel=&quot;nofollow&quot; target=&quot;_NEW&quot;&gt;\thttp://desibbrg.org/images/17928384764877676357.png&lt;/a&gt;\n    &lt;a href=&quot;\thttp://desibbrg.org/images/55209489338088223404.png&quot; rel=&quot;nofollow&quot; target=&quot;_NEW&quot;&gt;\thttp://desibbrg.org/images/55209489338088223404.png&lt;/a&gt;\n    &lt;a href=&quot;\thttp://desibbrg.org/images/74809946970457790384.png&quot; rel=&quot;nofollow&quot; target=&quot;_NEW&quot;&gt;\thttp://desibbrg.org/images/74809946970457790384.png&lt;/a&gt;\n    &lt;a href=&quot;\thttp://desibbrg.org/images/88399154607931183898.png&quot; rel=&quot;nofollow&quot; target=&quot;_NEW&quot;&gt;\thttp://desibbrg.org/images/88399154607931183898.png&lt;/a&gt;\n    &lt;a href=&quot;\thttp://desibbrg.org/images/52205206771350055825.png&quot; rel=&quot;nofollow&quot; target=&quot;_NEW&quot;&gt;\thttp://desibbrg.org/images/52205206771350055825.png&lt;/a&gt;\n    &lt;a href=&quot;\thttp://desibbrg.org/images/14342171417064692660.png&quot; rel=&quot;nofollow&quot; target=&quot;_NEW&quot;&gt;\thttp://desibbrg.org/images/14342171417064692660.png&lt;/a&gt;\n    &lt;a href=&quot;\thttp://desibbrg.org/images/68083865994758436087.gif&quot; rel=&quot;nofollow&quot; target=&quot;_NEW&quot;&gt;\thttp://desibbrg.org/images/68083865994758436087.gif&lt;/a&gt;\n\n-: Info :-  \n\n\nGeneral\n\nFormat                           : AVI\nFormat/Info                      : Audio Video Interleave\nFile size                        : 1.45 GiB\nDuration                         : 2h 39mn\nOverall bit rate                 : 1 299 Kbps\nWriting application              : VirtualDubMod 1.5.10.2 (build 2540/release)\nWriting library                  : VirtualDubMod build 2540/release\n\nVideo\nID                               : 0\nFormat                           : MPEG-4 Visual\nFormat profile                   : Advanced Simple@L5\nFormat settings, BVOP            : Yes\nFormat settings, QPel            : No\nFormat settings, GMC             : No warppoints\nFormat settings, Matrix          : Custom\nCodec ID                         : XVID\nCodec ID/Hint                    : XviD\nDuration                         : 2h 39mn\nBit rate                         : 842 Kbps\nWidth                            : 672 pixels\nHeight                           : 288 pixels\nDisplay aspect ratio             : 2.35:1\nFrame rate                       : 23.976 fps\nColor space                      : YUV\nChroma subsampling               : 4:2:0\nBit depth                        : 8 bits\nScan type                        : Progressive\nBits/(Pixel*Frame)               : 0.181\nStream size                      : 962 MiB (65%)\nWriting library                  : XviD 1.2.1 (UTC 2008-12-04)\n\nAudio\nID                               : 1\nFormat                           : AC-3\nFormat/Info                      : Audio Coding 3\nMode extension                   : CM (complete main)\nCodec ID                         : 2000\nDuration                         : 2h 39mn\nBit rate mode                    : Constant\nBit rate                         : 448 Kbps\nChannel(s)                       : 6 channels\nChannel positions                : Front: L C R, Side: L R, LFE\nSampling rate                    : 48.0 KHz\nBit depth                        : 16 bits\nStream size                      : 512 MiB (34%)\nAlignment                        : Split accross interleaves\nInterleave, duration             : 42 ms (1.00 video frame)\nInterleave, preload duration     : 500 ms\n\n\n &lt;a href=&quot;\nhttp://www.imdb.com/title/tt2358412/&quot; rel=&quot;nofollow&quot; target=&quot;_NEW&quot;&gt;\nhttp://www.imdb.com/title/tt2358412/&lt;/a&gt;\n\nBanner\nReel Life Entertainment Pvt Ltd\nGetaway Films\nReliance Entertainment\nRampage Motion Pictures Ltd\n\nStatus\nReleased\n\nRelease Date\n1 Feb 2013\n\nGenre\nComedy,Crime\n\nProducer\nBejoy Nambiar\nSharada Trilok\n\nStar Cast\nNeil Nitin Mukesh.... David\nChiyaan Vikram.... David\nVinay Virmani.... David\nLara Dutta.... Neelam\nTabu.... Frenny\nIsha Sharwani.... Roma\nRohini Hattangadi.... Malati Tai\nNasser.... Noel\nNishan Nanaiah.... Peter\nMonica Dogra\nMilind Soman\nAjinkya Deo\nPralhad Kakkar\nSatish Kaushik\nSarika\nSheetal Menon.... Suzy\nAkarsh Khurana.... Ghani\nRuby Chakravarthy.... Mariam\nShweta Pandit.... Alice\nAdhir Bhatt\nNeil Bhoopalam\nManish Jha\nRemo Fernandes\nUday Chandra\nJohn Vijay\nSanjeev Sharma\n\nStory / Writers\nBejoy Nambiar\n\nPublicity Pro\nSpice\n\nCensor Details:\n\nCensor Dates\n29 Jan 2013\n\nReels\nNot Available.\n\nLength in metres\n0.0\n\nMusic Director\n\nBramfatura\nMikey McCleary\nMaatibaani\nRemo Fernandes\nPrashant Pillai\nGaurav Godkhindi\nAaron Carvalho\nDub Sharma\n\nColor\nC\nLanguage\nHindi\nDirector\n\nBejoy Nambiar\n\nSingers\n\nLucky Ali\nRekha Bhardwaj\nNirali Kartik\nJoyshanti\nRemo Fernandes\nNaresh Iyer\nShweta Pandit\nModern Mafia\nAnirudh\nSwetha Mohan\nKartik\nNikhil D'Souza\nPriti Pillai\nMarianne\nTara Sitaria\nSaurabh Roy\nAaron Carvalho\n\nLyricist\n\nMaatibaani\nJoyshanti\nAbhijeet Deshpande\nGopal Datt\nAnkur Tewari\nTuraz\nMikey McCleary\nPriti Pillai\nAaron Carvalho\n\nEditor\n\nSreekar Prasad\n\nAction\n\nJaved Eijaz\n\nScreenplay\n\nBejoy Nambiar\nNatasha Sahgal\n\nDialogue\n\nAbhijeet Deshpande\n\nShooting Location(City &amp; Country)\nIndia\n\nMusic Company\nT-Series\n\n\n","torrent":{"xt":"urn:btih:b2223d006ccf285a19a4dfda62858786259db66e","amp;dn":"David+%282013%29+DVDRip+XviD+1%2F3+5.1+AC3+ESub","amp;tr":["udp%3A%2F%2Ftracker.openbittorrent.com%3A80","udp%3A%2F%2Fopen.demonii.com%3A1337","udp%3A%2F%2Ftracker.coppersurfer.tk%3A6969","udp%3A%2F%2Fexodus.desync.com%3A6969"],"infoHash":"b2223d006ccf285a19a4dfda62858786259db66e","infoHashBuffer":{"type":"Buffer","data":[178,34,61,0,108,207,40,90,25,164,223,218,98,133,135,134,37,157,182,110]},"announce":[],"urlList":[]}}